<mxfile host="app.diagrams.net" modified="2021-01-14T08:45:13.324Z" agent="5.0 (Windows NT 10.0; Win64; x64) AppleWebKit/537.36 (KHTML, like Gecko) Chrome/87.0.4280.66 Safari/537.36" etag="M7Vx-_ZZDMU4mywdXA-e" version="14.2.2" type="github">
  <diagram id="C5RBs43oDa-KdzZeNtuy" name="Page-1">
    <mxGraphModel dx="923" dy="430" grid="1" gridSize="10" guides="1" tooltips="1" connect="1" arrows="1" fold="1" page="1" pageScale="1" pageWidth="827" pageHeight="1169" math="0" shadow="0">
      <root>
        <mxCell id="WIyWlLk6GJQsqaUBKTNV-0" />
        <mxCell id="WIyWlLk6GJQsqaUBKTNV-1" parent="WIyWlLk6GJQsqaUBKTNV-0" />
        <mxCell id="EKh2bO4sF-y03ZDt91eH-7" value="&lt;b&gt;&lt;font style=&quot;font-size: 14px&quot;&gt;盘点单&lt;/font&gt;&lt;/b&gt;" style="text;html=1;strokeColor=none;fillColor=none;align=center;verticalAlign=middle;whiteSpace=wrap;rounded=0;" vertex="1" parent="WIyWlLk6GJQsqaUBKTNV-1">
          <mxGeometry x="390" y="20" width="110" height="20" as="geometry" />
        </mxCell>
        <mxCell id="EKh2bO4sF-y03ZDt91eH-59" style="edgeStyle=orthogonalEdgeStyle;rounded=0;orthogonalLoop=1;jettySize=auto;html=1;entryX=0;entryY=0.5;entryDx=0;entryDy=0;strokeColor=#FF3333;" edge="1" parent="WIyWlLk6GJQsqaUBKTNV-1" source="EKh2bO4sF-y03ZDt91eH-10" target="EKh2bO4sF-y03ZDt91eH-54">
          <mxGeometry relative="1" as="geometry">
            <Array as="points">
              <mxPoint x="330" y="75" />
              <mxPoint x="330" y="645" />
            </Array>
          </mxGeometry>
        </mxCell>
        <mxCell id="EKh2bO4sF-y03ZDt91eH-69" style="edgeStyle=orthogonalEdgeStyle;rounded=0;orthogonalLoop=1;jettySize=auto;html=1;entryX=0.5;entryY=0;entryDx=0;entryDy=0;strokeColor=#000000;" edge="1" parent="WIyWlLk6GJQsqaUBKTNV-1" source="EKh2bO4sF-y03ZDt91eH-10" target="EKh2bO4sF-y03ZDt91eH-11">
          <mxGeometry relative="1" as="geometry" />
        </mxCell>
        <mxCell id="EKh2bO4sF-y03ZDt91eH-10" value="盘点计划" style="rounded=1;whiteSpace=wrap;html=1;strokeColor=#000000;" vertex="1" parent="WIyWlLk6GJQsqaUBKTNV-1">
          <mxGeometry x="370" y="60" width="120" height="30" as="geometry" />
        </mxCell>
        <mxCell id="EKh2bO4sF-y03ZDt91eH-70" style="edgeStyle=orthogonalEdgeStyle;rounded=0;orthogonalLoop=1;jettySize=auto;html=1;entryX=0.5;entryY=0;entryDx=0;entryDy=0;strokeColor=#000000;" edge="1" parent="WIyWlLk6GJQsqaUBKTNV-1" source="EKh2bO4sF-y03ZDt91eH-11" target="EKh2bO4sF-y03ZDt91eH-68">
          <mxGeometry relative="1" as="geometry" />
        </mxCell>
        <mxCell id="EKh2bO4sF-y03ZDt91eH-11" value="盘点条件1" style="rounded=1;whiteSpace=wrap;html=1;strokeColor=#000000;" vertex="1" parent="WIyWlLk6GJQsqaUBKTNV-1">
          <mxGeometry x="370" y="130" width="120" height="30" as="geometry" />
        </mxCell>
        <mxCell id="EKh2bO4sF-y03ZDt91eH-21" style="rounded=0;orthogonalLoop=1;jettySize=auto;html=1;exitX=0.5;exitY=1;exitDx=0;exitDy=0;entryX=0.5;entryY=0;entryDx=0;entryDy=0;" edge="1" parent="WIyWlLk6GJQsqaUBKTNV-1" source="EKh2bO4sF-y03ZDt91eH-12" target="EKh2bO4sF-y03ZDt91eH-20">
          <mxGeometry relative="1" as="geometry" />
        </mxCell>
        <mxCell id="EKh2bO4sF-y03ZDt91eH-12" value="组合条件" style="rounded=1;whiteSpace=wrap;html=1;strokeColor=#000000;" vertex="1" parent="WIyWlLk6GJQsqaUBKTNV-1">
          <mxGeometry x="370" y="410" width="120" height="30" as="geometry" />
        </mxCell>
        <mxCell id="EKh2bO4sF-y03ZDt91eH-20" value="是否支持空库位" style="rhombus;whiteSpace=wrap;html=1;strokeColor=#000000;" vertex="1" parent="WIyWlLk6GJQsqaUBKTNV-1">
          <mxGeometry x="370" y="470" width="120" height="50" as="geometry" />
        </mxCell>
        <mxCell id="EKh2bO4sF-y03ZDt91eH-55" style="edgeStyle=none;rounded=0;orthogonalLoop=1;jettySize=auto;html=1;exitX=0.5;exitY=1;exitDx=0;exitDy=0;entryX=0.5;entryY=0;entryDx=0;entryDy=0;strokeColor=#000000;" edge="1" parent="WIyWlLk6GJQsqaUBKTNV-1" source="EKh2bO4sF-y03ZDt91eH-36" target="EKh2bO4sF-y03ZDt91eH-54">
          <mxGeometry relative="1" as="geometry" />
        </mxCell>
        <mxCell id="EKh2bO4sF-y03ZDt91eH-36" value="以库存为维度&lt;br&gt;查询库存" style="rounded=1;whiteSpace=wrap;html=1;strokeColor=#000000;" vertex="1" parent="WIyWlLk6GJQsqaUBKTNV-1">
          <mxGeometry x="370" y="560" width="120" height="30" as="geometry" />
        </mxCell>
        <mxCell id="EKh2bO4sF-y03ZDt91eH-57" style="edgeStyle=orthogonalEdgeStyle;rounded=0;orthogonalLoop=1;jettySize=auto;html=1;entryX=1;entryY=0.5;entryDx=0;entryDy=0;strokeColor=#000000;" edge="1" parent="WIyWlLk6GJQsqaUBKTNV-1" source="EKh2bO4sF-y03ZDt91eH-42" target="EKh2bO4sF-y03ZDt91eH-54">
          <mxGeometry relative="1" as="geometry">
            <Array as="points">
              <mxPoint x="590" y="645" />
            </Array>
          </mxGeometry>
        </mxCell>
        <mxCell id="EKh2bO4sF-y03ZDt91eH-42" value="以库位为维度&lt;br&gt;查询库存" style="rounded=1;whiteSpace=wrap;html=1;strokeColor=#000000;" vertex="1" parent="WIyWlLk6GJQsqaUBKTNV-1">
          <mxGeometry x="530" y="560" width="120" height="30" as="geometry" />
        </mxCell>
        <mxCell id="EKh2bO4sF-y03ZDt91eH-54" value="盘点单&lt;font color=&quot;#ff3333&quot;&gt;（计划）&lt;/font&gt;" style="rounded=1;whiteSpace=wrap;html=1;strokeColor=#000000;" vertex="1" parent="WIyWlLk6GJQsqaUBKTNV-1">
          <mxGeometry x="370" y="630" width="120" height="30" as="geometry" />
        </mxCell>
        <mxCell id="EKh2bO4sF-y03ZDt91eH-60" value="&lt;font color=&quot;#ff3333&quot;&gt;盘点类型&lt;/font&gt;" style="text;html=1;strokeColor=#FFFFFF;fillColor=none;align=left;verticalAlign=middle;whiteSpace=wrap;rounded=0;" vertex="1" parent="WIyWlLk6GJQsqaUBKTNV-1">
          <mxGeometry x="268" y="260" width="60" height="60" as="geometry" />
        </mxCell>
        <mxCell id="EKh2bO4sF-y03ZDt91eH-86" style="edgeStyle=orthogonalEdgeStyle;rounded=0;orthogonalLoop=1;jettySize=auto;html=1;entryX=0.5;entryY=0;entryDx=0;entryDy=0;strokeColor=#FF3333;" edge="1" parent="WIyWlLk6GJQsqaUBKTNV-1" source="EKh2bO4sF-y03ZDt91eH-61" target="EKh2bO4sF-y03ZDt91eH-84">
          <mxGeometry relative="1" as="geometry" />
        </mxCell>
        <mxCell id="EKh2bO4sF-y03ZDt91eH-61" value="&lt;font color=&quot;#ff3333&quot;&gt;动碰盘点计划条件&lt;/font&gt;" style="rounded=1;whiteSpace=wrap;html=1;strokeColor=#FF3333;" vertex="1" parent="WIyWlLk6GJQsqaUBKTNV-1">
          <mxGeometry x="560" y="200" width="120" height="30" as="geometry" />
        </mxCell>
        <mxCell id="EKh2bO4sF-y03ZDt91eH-68" value="是否计划盘点" style="rhombus;whiteSpace=wrap;html=1;strokeColor=#000000;" vertex="1" parent="WIyWlLk6GJQsqaUBKTNV-1">
          <mxGeometry x="370" y="190" width="120" height="50" as="geometry" />
        </mxCell>
        <mxCell id="EKh2bO4sF-y03ZDt91eH-78" value="" style="endArrow=classic;html=1;strokeColor=#000000;exitX=0.5;exitY=1;exitDx=0;exitDy=0;entryX=0.5;entryY=0;entryDx=0;entryDy=0;" edge="1" parent="WIyWlLk6GJQsqaUBKTNV-1" source="EKh2bO4sF-y03ZDt91eH-68" target="EKh2bO4sF-y03ZDt91eH-12">
          <mxGeometry relative="1" as="geometry">
            <mxPoint x="420" y="250" as="sourcePoint" />
            <mxPoint x="520" y="250" as="targetPoint" />
          </mxGeometry>
        </mxCell>
        <mxCell id="EKh2bO4sF-y03ZDt91eH-79" value="是" style="edgeLabel;resizable=0;html=1;align=center;verticalAlign=middle;" connectable="0" vertex="1" parent="EKh2bO4sF-y03ZDt91eH-78">
          <mxGeometry relative="1" as="geometry" />
        </mxCell>
        <mxCell id="EKh2bO4sF-y03ZDt91eH-80" value="" style="endArrow=classic;html=1;strokeColor=#000000;exitX=0.5;exitY=1;exitDx=0;exitDy=0;entryX=0.5;entryY=0;entryDx=0;entryDy=0;" edge="1" parent="WIyWlLk6GJQsqaUBKTNV-1">
          <mxGeometry relative="1" as="geometry">
            <mxPoint x="429.17" y="520.0000000000001" as="sourcePoint" />
            <mxPoint x="429.17" y="559.9999999999999" as="targetPoint" />
          </mxGeometry>
        </mxCell>
        <mxCell id="EKh2bO4sF-y03ZDt91eH-81" value="否" style="edgeLabel;resizable=0;html=1;align=center;verticalAlign=middle;" connectable="0" vertex="1" parent="EKh2bO4sF-y03ZDt91eH-80">
          <mxGeometry relative="1" as="geometry" />
        </mxCell>
        <mxCell id="EKh2bO4sF-y03ZDt91eH-82" value="" style="endArrow=classic;html=1;strokeColor=#000000;exitX=1;exitY=0.5;exitDx=0;exitDy=0;entryX=0.5;entryY=0;entryDx=0;entryDy=0;" edge="1" parent="WIyWlLk6GJQsqaUBKTNV-1" source="EKh2bO4sF-y03ZDt91eH-20" target="EKh2bO4sF-y03ZDt91eH-42">
          <mxGeometry relative="1" as="geometry">
            <mxPoint x="490" y="530" as="sourcePoint" />
            <mxPoint x="590" y="530" as="targetPoint" />
            <Array as="points">
              <mxPoint x="590" y="495" />
            </Array>
          </mxGeometry>
        </mxCell>
        <mxCell id="EKh2bO4sF-y03ZDt91eH-83" value="是" style="edgeLabel;resizable=0;html=1;align=center;verticalAlign=middle;" connectable="0" vertex="1" parent="EKh2bO4sF-y03ZDt91eH-82">
          <mxGeometry relative="1" as="geometry">
            <mxPoint x="-22.5" as="offset" />
          </mxGeometry>
        </mxCell>
        <mxCell id="EKh2bO4sF-y03ZDt91eH-87" style="edgeStyle=orthogonalEdgeStyle;rounded=0;orthogonalLoop=1;jettySize=auto;html=1;entryX=0.5;entryY=0;entryDx=0;entryDy=0;strokeColor=#FF3333;" edge="1" parent="WIyWlLk6GJQsqaUBKTNV-1" source="EKh2bO4sF-y03ZDt91eH-84" target="EKh2bO4sF-y03ZDt91eH-85">
          <mxGeometry relative="1" as="geometry" />
        </mxCell>
        <mxCell id="EKh2bO4sF-y03ZDt91eH-84" value="&lt;font color=&quot;#ff3333&quot;&gt;库存交易流水&lt;/font&gt;" style="rounded=1;whiteSpace=wrap;html=1;strokeColor=#FF3333;" vertex="1" parent="WIyWlLk6GJQsqaUBKTNV-1">
          <mxGeometry x="560" y="270" width="120" height="30" as="geometry" />
        </mxCell>
        <mxCell id="EKh2bO4sF-y03ZDt91eH-88" style="edgeStyle=orthogonalEdgeStyle;rounded=0;orthogonalLoop=1;jettySize=auto;html=1;entryX=1;entryY=0.5;entryDx=0;entryDy=0;strokeColor=#FF3333;" edge="1" parent="WIyWlLk6GJQsqaUBKTNV-1" source="EKh2bO4sF-y03ZDt91eH-85" target="EKh2bO4sF-y03ZDt91eH-12">
          <mxGeometry relative="1" as="geometry">
            <Array as="points">
              <mxPoint x="620" y="425" />
            </Array>
          </mxGeometry>
        </mxCell>
        <mxCell id="EKh2bO4sF-y03ZDt91eH-85" value="&lt;font color=&quot;#ff3333&quot;&gt;变更库位&lt;/font&gt;" style="rounded=1;whiteSpace=wrap;html=1;strokeColor=#FF3333;" vertex="1" parent="WIyWlLk6GJQsqaUBKTNV-1">
          <mxGeometry x="560" y="340" width="120" height="30" as="geometry" />
        </mxCell>
        <mxCell id="EKh2bO4sF-y03ZDt91eH-89" value="" style="endArrow=classic;html=1;strokeColor=#FF3333;exitX=1;exitY=0.5;exitDx=0;exitDy=0;" edge="1" parent="WIyWlLk6GJQsqaUBKTNV-1" source="EKh2bO4sF-y03ZDt91eH-68">
          <mxGeometry relative="1" as="geometry">
            <mxPoint x="500" y="214.57999999999998" as="sourcePoint" />
            <mxPoint x="560" y="215" as="targetPoint" />
          </mxGeometry>
        </mxCell>
        <mxCell id="EKh2bO4sF-y03ZDt91eH-90" value="&lt;font color=&quot;#ff3333&quot;&gt;否&lt;/font&gt;" style="edgeLabel;resizable=0;html=1;align=center;verticalAlign=middle;" connectable="0" vertex="1" parent="EKh2bO4sF-y03ZDt91eH-89">
          <mxGeometry relative="1" as="geometry" />
        </mxCell>
      </root>
    </mxGraphModel>
  </diagram>
</mxfile>
